<?xml version="1.0" encoding="utf-8"?>
<!-- Generator: Adobe Illustrator 18.1.1, SVG Export Plug-In . SVG Version: 6.00 Build 0)  -->
<!DOCTYPE svg PUBLIC "-//W3C//DTD SVG 1.1//EN" "http://www.w3.org/Graphics/SVG/1.1/DTD/svg11.dtd">
<svg version="1.1" id="Layer_1" xmlns="http://www.w3.org/2000/svg" xmlns:xlink="http://www.w3.org/1999/xlink" x="0px" y="0px"
	 viewBox="0 0 750 600" enable-background="new 0 0 750 600" xml:space="preserve">
<circle fill="#59A1C9" fill-opacity="5.000000e-02" stroke="#59A1C9" stroke-miterlimit="10" cx="460.1" cy="298" r="265"/>
<circle fill="#59A1C9" fill-opacity="5.000000e-02" stroke="#59A1C9" stroke-miterlimit="10" cx="105" cy="298" r="80"/>
<line fill="none" stroke="#59A1C9" stroke-miterlimit="10" x1="105" y1="218" x2="243" y2="146.1"/>
<line fill="none" stroke="#59A1C9" stroke-miterlimit="10" x1="105" y1="378" x2="243.4" y2="450.1"/>
<g>
	<rect x="255.6" y="273" opacity="0.15" fill="#59A1C9" width="159" height="49"/>
	<g>
		<path fill="#59A1C9" d="M414.1,273.5v48h-158v-48H414.1 M415.1,272.5h-160v50h160V272.5L415.1,272.5z"/>
	</g>
</g>
<g>
	<g>
		<path fill="#59A1C9" d="M320.9,303.5l-4.7-13.1h1.2l3,8.4c0.1,0.4,0.2,0.8,0.4,1.2c0.1,0.4,0.3,0.8,0.4,1.1s0.2,0.7,0.3,1.2
			c0-0.2,0.1-0.4,0.2-0.7c0.1-0.2,0.2-0.6,0.4-1.2c0.2-0.5,0.4-1.1,0.5-1.6c0.4-1.4,0.9-2.8,1.5-4.3s1.1-2.9,1.5-4.1h1.3l-4.8,13.1
			H320.9z"/>
		<path fill="#59A1C9" d="M328.2,291.9v-1.5h1.1v1.5H328.2z M328.2,303.5v-9.6h1.1v9.6H328.2z"/>
		<path fill="#59A1C9" d="M335.9,303.7c-1.3,0-2.4-0.4-3.2-1.3c-0.8-0.9-1.2-2.1-1.2-3.6c0-1.5,0.4-2.7,1.1-3.6
			c0.8-0.9,1.8-1.4,3-1.5c1.1,0,2,0.4,2.7,1.2s1,1.9,1,3.3c0,0.1,0,0.2,0,0.3c0,0.2,0,0.3,0,0.3h-6.7c0,1.2,0.3,2.2,0.9,2.9
			s1.4,1.1,2.3,1.1c0.6,0,1.2-0.1,1.6-0.2s0.9-0.4,1.5-0.6l0.2,0.8C338.2,303.4,337.1,303.7,335.9,303.7z M332.7,297.9h5.5
			c0-1.1-0.2-1.9-0.7-2.5s-1.1-0.9-1.9-0.9c-0.8,0-1.5,0.3-2,0.9S332.8,296.9,332.7,297.9z"/>
		<path fill="#59A1C9" d="M343.2,303.5l-2.7-9.6h1.1l2.2,8.6c1.6-5.1,2.5-8,2.7-8.6h1.3c1.8,5.7,2.6,8.6,2.7,8.6l2.1-8.6h1.1
			l-2.6,9.6h-1.3c0,0-0.4-1.3-1.2-4.1s-1.3-4.3-1.4-4.8c-0.1,0.3-0.3,1.2-0.8,2.7s-0.9,2.9-1.3,4.2s-0.6,2-0.7,2H343.2z"/>
	</g>
</g>
<g>
	<g>
		<path fill="#59A1C9" d="M377.9,102.5V89.4h4c0.6,0,1.1,0.1,1.5,0.2s0.9,0.3,1.3,0.6s0.7,0.6,0.9,1s0.3,0.9,0.3,1.5
			c0,0.3,0,0.6,0,0.9s-0.1,0.5-0.2,0.8s-0.2,0.5-0.4,0.7s-0.3,0.4-0.6,0.6s-0.5,0.4-0.9,0.5s-0.7,0.2-1.2,0.3s-1,0.1-1.6,0.1
			c-0.6,0-1.3,0-2-0.1v6H377.9z M381.2,95.6c0.7,0,1.3-0.1,1.7-0.2s0.8-0.3,1.1-0.5s0.4-0.4,0.5-0.7s0.2-0.6,0.2-0.7s0-0.5,0-0.8
			c0,0,0,0,0-0.1c0-0.8-0.3-1.3-0.8-1.7s-1.2-0.6-2-0.6H379v5.1C379.5,95.6,380.2,95.6,381.2,95.6z"/>
		<path fill="#59A1C9" d="M389.9,102.7c-0.9,0-1.6-0.2-2.2-0.7s-0.8-1.1-0.8-2c0-0.5,0.1-0.9,0.3-1.3s0.5-0.7,0.9-0.9
			s0.9-0.4,1.4-0.5s1.1-0.2,1.9-0.3c0.8,0,1.3-0.1,1.7-0.1v-1.1c0-0.7-0.2-1.3-0.5-1.7s-0.9-0.6-1.6-0.6c-1,0-2,0.2-2.9,0.7
			c0-0.1-0.1-0.2-0.2-0.4s-0.1-0.3-0.2-0.5c0.4-0.2,0.8-0.4,1.4-0.6s1.2-0.2,1.7-0.2c1.2,0,2,0.2,2.5,0.7s0.8,1.4,0.8,2.6v6.4h-0.9
			c0-0.1-0.1-0.4-0.1-0.8s-0.1-0.6-0.1-0.6C392.4,102.2,391.3,102.7,389.9,102.7z M389.9,101.8c0.8,0,1.4-0.2,2-0.7s1-1.1,1.1-1.8
			v-1.6c-0.8,0.1-1.3,0.1-1.3,0.1c-1.4,0.1-2.4,0.4-3,0.7s-0.8,0.9-0.8,1.6c0,0.6,0.2,1,0.5,1.3S389.3,101.8,389.9,101.8z"/>
		<path fill="#59A1C9" d="M398.3,107l-0.1-1h2c0.5,0,0.8,0,1.2-0.1s0.6-0.2,0.9-0.3c0.2-0.1,0.4-0.3,0.6-0.5
			c0.2-0.2,0.3-0.4,0.4-0.7s0.2-0.5,0.2-0.9s0.1-0.7,0.1-1s0-0.7,0-1.1c0,0.1,0,0,0,0l0-0.6c-0.4,0.6-0.8,1-1.3,1.3
			s-1.1,0.5-1.8,0.5c-0.6,0-1.1-0.1-1.6-0.3s-0.9-0.5-1.2-0.8s-0.6-0.7-0.8-1.1s-0.4-0.8-0.4-1.3s-0.1-0.8-0.1-1.2
			c0-0.5,0-1,0.1-1.5c0.1-0.5,0.2-0.9,0.4-1.4s0.5-0.8,0.8-1.2s0.7-0.6,1.2-0.8s1.1-0.3,1.7-0.3c0.6,0,1.2,0.1,1.6,0.4
			s0.9,0.6,1.3,1.2l0.1-1.4h1v8.9c0,0.4,0,0.7,0,0.9c0,0.2,0,0.6-0.1,1c-0.1,0.4-0.1,0.7-0.3,1c-0.1,0.3-0.3,0.5-0.5,0.9
			s-0.5,0.6-0.8,0.7c-0.3,0.2-0.7,0.3-1.2,0.5s-1,0.2-1.7,0.2H398.3z M400.5,101.6c0.4,0,0.8-0.1,1.2-0.2s0.6-0.3,0.9-0.5
			s0.4-0.5,0.6-0.8c0.2-0.3,0.3-0.6,0.3-0.9s0.1-0.7,0.1-1v-1c0-0.5-0.1-0.9-0.2-1.3s-0.3-0.8-0.5-1.1s-0.5-0.6-1-0.8
			s-0.9-0.3-1.4-0.3c-0.4,0-0.8,0.1-1.2,0.3s-0.6,0.4-0.9,0.7s-0.4,0.6-0.6,1s-0.3,0.7-0.3,1.1c-0.1,0.4-0.1,0.8-0.1,1.2
			c0,0.4,0,0.7,0.1,1c0.1,0.3,0.2,0.7,0.3,1c0.1,0.3,0.3,0.6,0.5,0.9s0.5,0.5,0.9,0.6C399.6,101.5,400,101.6,400.5,101.6z"/>
		<path fill="#59A1C9" d="M411,102.7c-1.3,0-2.4-0.4-3.2-1.3c-0.8-0.9-1.2-2.1-1.2-3.6c0-1.5,0.4-2.7,1.1-3.6c0.8-0.9,1.8-1.4,3-1.5
			c1.1,0,2,0.4,2.7,1.2s1,1.9,1,3.3c0,0.1,0,0.2,0,0.3c0,0.2,0,0.3,0,0.3h-6.7c0,1.2,0.3,2.2,0.9,2.9s1.4,1.1,2.3,1.1
			c0.6,0,1.2-0.1,1.6-0.2s0.9-0.4,1.5-0.6l0.2,0.8C413.3,102.4,412.2,102.7,411,102.7z M407.9,96.9h5.5c0-1.1-0.2-1.9-0.7-2.5
			s-1.1-0.9-1.9-0.9c-0.8,0-1.5,0.3-2,0.9S407.9,95.9,407.9,96.9z"/>
		<path fill="#59A1C9" d="M424.4,102.7c-1.3,0-2.3-0.4-3-1.3c-0.7-0.9-1.1-2.1-1.1-3.7c0-1.5,0.4-2.7,1.1-3.6
			c0.7-0.9,1.7-1.4,2.9-1.4c0.6,0,1.2,0.1,1.8,0.4s1.1,0.7,1.4,1.2V94v-4.9l1.1-0.1v13.5h-0.9l-0.2-1.5c-0.3,0.5-0.8,1-1.4,1.2
			C425.6,102.6,425,102.7,424.4,102.7z M424.4,101.8c0.5,0,1-0.1,1.4-0.3s0.7-0.5,1-0.8s0.4-0.8,0.5-1.3c0.1-0.5,0.2-1,0.2-1.6
			c0-2.9-1.1-4.3-3.2-4.3c-0.5,0-0.9,0.1-1.3,0.4s-0.7,0.6-0.9,1c-0.2,0.4-0.4,0.8-0.5,1.3s-0.2,1-0.2,1.5c0,0.5,0,0.9,0.1,1.3
			s0.2,0.8,0.3,1.1s0.3,0.7,0.5,0.9s0.5,0.5,0.8,0.6S424,101.8,424.4,101.8z"/>
		<path fill="#59A1C9" d="M435.1,102.7c-0.9,0-1.6-0.2-2.3-0.7c-0.7-0.4-1.2-1-1.5-1.8s-0.5-1.6-0.5-2.6c0-0.7,0.1-1.4,0.3-2
			c0.2-0.6,0.5-1.1,0.9-1.6s0.8-0.8,1.4-1.1s1.2-0.4,1.9-0.4c0.9,0,1.7,0.2,2.3,0.7s1.2,1,1.5,1.8s0.5,1.6,0.5,2.6
			c0,1-0.2,1.8-0.5,2.6s-0.8,1.3-1.5,1.8S436,102.7,435.1,102.7z M435.2,101.8c0.7,0,1.3-0.2,1.8-0.6c0.5-0.4,0.8-0.9,1.1-1.5
			c0.2-0.6,0.3-1.3,0.3-2.1c0-1.2-0.3-2.2-0.8-3s-1.3-1.1-2.4-1.1c-0.7,0-1.3,0.2-1.8,0.6s-0.9,0.9-1.1,1.5s-0.3,1.3-0.3,2.1
			c0,1.2,0.3,2.2,0.8,3C433.3,101.4,434.1,101.8,435.2,101.8z"/>
		<path fill="#59A1C9" d="M445.5,102.7c-1.3,0-2.4-0.4-3.2-1.3c-0.8-0.9-1.2-2.1-1.2-3.6c0-1.5,0.4-2.7,1.1-3.6
			c0.8-0.9,1.8-1.4,3-1.5c1.1,0,2,0.4,2.7,1.2s1,1.9,1,3.3c0,0.1,0,0.2,0,0.3c0,0.2,0,0.3,0,0.3h-6.7c0,1.2,0.3,2.2,0.9,2.9
			s1.4,1.1,2.3,1.1c0.6,0,1.2-0.1,1.6-0.2s0.9-0.4,1.5-0.6l0.2,0.8C447.9,102.4,446.8,102.7,445.5,102.7z M442.4,96.9h5.5
			c0-1.1-0.2-1.9-0.7-2.5s-1.1-0.9-1.9-0.9c-0.8,0-1.5,0.3-2,0.9S442.5,95.9,442.4,96.9z"/>
		<path fill="#59A1C9" d="M454,102.7c-0.6,0-1.2-0.1-1.7-0.2s-1-0.3-1.3-0.5l0.2-0.9c1,0.5,1.9,0.8,2.8,0.8c1.6,0,2.4-0.6,2.5-1.8
			c0-0.5-0.2-0.9-0.5-1.2c-0.3-0.3-1-0.6-1.9-0.9c-0.5-0.2-0.8-0.3-0.8-0.3c-1.5-0.5-2.3-1.3-2.3-2.4c0-0.7,0.3-1.3,0.9-1.8
			s1.4-0.8,2.4-0.8s2,0.2,2.9,0.6l-0.4,0.8c-0.9-0.3-1.7-0.5-2.5-0.5c-0.7,0-1.2,0.2-1.6,0.5c-0.4,0.3-0.6,0.7-0.6,1.2
			c0,0.4,0.1,0.8,0.4,1c0.3,0.2,0.8,0.5,1.5,0.7c0.1,0,0.2,0.1,0.5,0.2c0.2,0.1,0.3,0.1,0.4,0.1c1,0.3,1.7,0.7,2.1,1.1
			c0.4,0.4,0.6,1,0.6,1.7c0,0.8-0.3,1.5-0.9,2S455.1,102.7,454,102.7z"/>
		<path fill="#59A1C9" d="M463.6,102.5v-9.6h0.9l0.1,1.5c0.3-0.5,0.8-0.9,1.4-1.2s1.2-0.4,1.9-0.4c1.1,0,1.9,0.3,2.4,0.9
			s0.8,1.6,0.8,2.9v6h-1.1V96c0-0.9-0.2-1.5-0.5-1.8s-0.9-0.6-1.6-0.6c-0.9,0-1.6,0.2-2.1,0.7c-0.6,0.4-0.9,1-1,1.7
			c0,0.3,0,0.6,0,0.9v5.7H463.6z"/>
		<path fill="#59A1C9" d="M477.6,102.7c-0.9,0-1.6-0.2-2.3-0.7c-0.7-0.4-1.2-1-1.5-1.8s-0.5-1.6-0.5-2.6c0-0.7,0.1-1.4,0.3-2
			c0.2-0.6,0.5-1.1,0.9-1.6s0.8-0.8,1.4-1.1s1.2-0.4,1.9-0.4c0.9,0,1.7,0.2,2.3,0.7s1.2,1,1.5,1.8s0.5,1.6,0.5,2.6
			c0,1-0.2,1.8-0.5,2.6s-0.8,1.3-1.5,1.8S478.5,102.7,477.6,102.7z M477.7,101.8c0.7,0,1.3-0.2,1.8-0.6c0.5-0.4,0.8-0.9,1.1-1.5
			c0.2-0.6,0.3-1.3,0.3-2.1c0-1.2-0.3-2.2-0.8-3s-1.3-1.1-2.4-1.1c-0.7,0-1.3,0.2-1.8,0.6s-0.9,0.9-1.1,1.5s-0.3,1.3-0.3,2.1
			c0,1.2,0.3,2.2,0.8,3C475.9,101.4,476.7,101.8,477.7,101.8z"/>
		<path fill="#59A1C9" d="M486.9,102.7c-0.8,0-1.4-0.2-1.8-0.5s-0.6-1-0.6-1.8v-6.7h-1.4l0.1-0.7l1.3-0.1l0.3-2.2l0.8-0.1v2.2h2.8
			v0.8h-2.8v6.5c0,0.7,0.1,1.1,0.3,1.4s0.6,0.3,1.2,0.3c0.4,0,0.8-0.1,1.4-0.2l0,0.8C487.8,102.6,487.3,102.7,486.9,102.7z"/>
		<path fill="#59A1C9" d="M494.2,102.5c0-5.7,0-8.9,0-9.6h0.9l0.1,1.9c0.3-0.6,0.8-1,1.3-1.4s1.1-0.5,1.7-0.5c0.2,0,0.5,0,0.8,0.1
			l-0.1,0.9c-0.2,0-0.4-0.1-0.7-0.1c-0.8,0-1.5,0.3-2.1,1c-0.6,0.6-0.8,1.4-0.8,2.3v5.5H494.2z"/>
		<path fill="#59A1C9" d="M504.2,102.7c-1.3,0-2.4-0.4-3.2-1.3c-0.8-0.9-1.2-2.1-1.2-3.6c0-1.5,0.4-2.7,1.1-3.6
			c0.8-0.9,1.8-1.4,3-1.5c1.1,0,2,0.4,2.7,1.2s1,1.9,1,3.3c0,0.1,0,0.2,0,0.3c0,0.2,0,0.3,0,0.3H501c0,1.2,0.3,2.2,0.9,2.9
			s1.4,1.1,2.3,1.1c0.6,0,1.2-0.1,1.6-0.2s0.9-0.4,1.5-0.6l0.2,0.8C506.5,102.4,505.4,102.7,504.2,102.7z M501.1,96.9h5.5
			c0-1.1-0.2-1.9-0.7-2.5s-1.1-0.9-1.9-0.9c-0.8,0-1.5,0.3-2,0.9S501.2,95.9,501.1,96.9z"/>
		<path fill="#59A1C9" d="M512.3,102.7c-0.8,0-1.4-0.2-1.8-0.5s-0.6-1-0.6-1.8V89.1l1.1-0.1v11.3c0,0.6,0.1,1,0.3,1.2
			c0.2,0.2,0.5,0.3,1,0.3c0.4,0,0.8-0.1,1.3-0.2l0,0.8C513.2,102.6,512.7,102.7,512.3,102.7z"/>
		<path fill="#59A1C9" d="M518.9,102.7c-0.9,0-1.6-0.2-2.3-0.7c-0.7-0.4-1.2-1-1.5-1.8s-0.5-1.6-0.5-2.6c0-0.7,0.1-1.4,0.3-2
			c0.2-0.6,0.5-1.1,0.9-1.6s0.8-0.8,1.4-1.1s1.2-0.4,1.9-0.4c0.9,0,1.7,0.2,2.3,0.7s1.2,1,1.5,1.8s0.5,1.6,0.5,2.6
			c0,1-0.2,1.8-0.5,2.6s-0.8,1.3-1.5,1.8S519.8,102.7,518.9,102.7z M519,101.8c0.7,0,1.3-0.2,1.8-0.6c0.5-0.4,0.8-0.9,1.1-1.5
			c0.2-0.6,0.3-1.3,0.3-2.1c0-1.2-0.3-2.2-0.8-3s-1.3-1.1-2.4-1.1c-0.7,0-1.3,0.2-1.8,0.6s-0.9,0.9-1.1,1.5s-0.3,1.3-0.3,2.1
			c0,1.2,0.3,2.2,0.8,3C517.2,101.4,518,101.8,519,101.8z"/>
		<path fill="#59A1C9" d="M528,102.7c-0.9,0-1.6-0.2-2.2-0.7s-0.8-1.1-0.8-2c0-0.5,0.1-0.9,0.3-1.3s0.5-0.7,0.9-0.9
			c0.4-0.2,0.9-0.4,1.4-0.5s1.1-0.2,1.9-0.3c0.8,0,1.3-0.1,1.7-0.1v-1.1c0-0.7-0.2-1.3-0.5-1.7c-0.3-0.4-0.9-0.6-1.6-0.6
			c-1,0-2,0.2-2.9,0.7c0-0.1-0.1-0.2-0.2-0.4c-0.1-0.2-0.1-0.3-0.2-0.5c0.4-0.2,0.8-0.4,1.4-0.6s1.2-0.2,1.7-0.2
			c1.2,0,2,0.2,2.5,0.7s0.8,1.4,0.8,2.6v6.4h-0.9c0-0.1-0.1-0.4-0.1-0.8s-0.1-0.6-0.1-0.6C530.4,102.2,529.3,102.7,528,102.7z
			 M528,101.8c0.8,0,1.4-0.2,2-0.7c0.6-0.4,1-1.1,1.1-1.8v-1.6c-0.8,0.1-1.3,0.1-1.3,0.1c-1.4,0.1-2.4,0.4-3,0.7s-0.8,0.9-0.8,1.6
			c0,0.6,0.2,1,0.5,1.3C526.9,101.7,527.4,101.8,528,101.8z"/>
		<path fill="#59A1C9" d="M538.5,102.7c-1.3,0-2.3-0.4-3-1.3c-0.7-0.9-1.1-2.1-1.1-3.7c0-1.5,0.4-2.7,1.1-3.6
			c0.7-0.9,1.7-1.4,2.9-1.4c0.6,0,1.2,0.1,1.8,0.4s1.1,0.7,1.4,1.2V94v-4.9l1.1-0.1v13.5h-0.9l-0.2-1.5c-0.3,0.5-0.8,1-1.4,1.2
			C539.7,102.6,539.1,102.7,538.5,102.7z M538.5,101.8c0.5,0,1-0.1,1.4-0.3s0.7-0.5,1-0.8s0.4-0.8,0.5-1.3c0.1-0.5,0.2-1,0.2-1.6
			c0-2.9-1.1-4.3-3.2-4.3c-0.5,0-0.9,0.1-1.3,0.4s-0.7,0.6-0.9,1c-0.2,0.4-0.4,0.8-0.5,1.3s-0.2,1-0.2,1.5c0,0.5,0,0.9,0.1,1.3
			s0.2,0.8,0.3,1.1s0.3,0.7,0.5,0.9s0.5,0.5,0.8,0.6S538.1,101.8,538.5,101.8z"/>
		<path fill="#59A1C9" d="M388.4,124.3c-1.3,0-2.3-0.4-3-1.3s-1.1-2.1-1.1-3.7c0-1.5,0.4-2.7,1.1-3.6s1.7-1.4,2.9-1.4
			c0.6,0,1.2,0.1,1.8,0.4s1.1,0.7,1.4,1.2v-0.3v-4.9l1.1-0.1v13.5h-0.9l-0.2-1.5c-0.3,0.5-0.8,1-1.4,1.2S389,124.3,388.4,124.3z
			 M388.4,123.4c0.5,0,1-0.1,1.4-0.3s0.7-0.5,1-0.8s0.4-0.8,0.5-1.3s0.2-1,0.2-1.6c0-2.9-1.1-4.3-3.2-4.3c-0.5,0-0.9,0.1-1.3,0.4
			s-0.7,0.6-0.9,1s-0.4,0.8-0.5,1.3s-0.2,1-0.2,1.5c0,0.5,0,0.9,0.1,1.3s0.2,0.8,0.3,1.1s0.3,0.7,0.5,0.9s0.5,0.5,0.8,0.6
			S388,123.4,388.4,123.4z"/>
		<path fill="#59A1C9" d="M398.8,124.3c-0.5,0-1-0.1-1.4-0.2c-0.4-0.1-0.8-0.3-1.2-0.5s-0.7-0.6-0.9-1c-0.2-0.4-0.3-1-0.3-1.6v-6.6
			h1.1v6.6c0,0.5,0.1,0.8,0.2,1.2s0.3,0.6,0.6,0.7s0.5,0.3,0.8,0.3s0.6,0.1,1,0.1c0.4,0,0.7,0,1-0.1s0.6-0.2,0.8-0.3
			s0.5-0.4,0.6-0.7c0.1-0.3,0.2-0.7,0.2-1.1v-6.6h1.1v6.6c0,0.5-0.1,0.9-0.2,1.3s-0.3,0.7-0.6,0.9s-0.5,0.4-0.8,0.6s-0.7,0.3-1,0.3
			S399.2,124.3,398.8,124.3z"/>
		<path fill="#59A1C9" d="M404.9,124.1c0-5.7,0-8.9,0-9.6h0.9l0.1,1.9c0.3-0.6,0.8-1,1.3-1.4s1.1-0.5,1.7-0.5c0.2,0,0.5,0,0.8,0.1
			l-0.1,0.9c-0.2,0-0.4-0.1-0.7-0.1c-0.8,0-1.5,0.3-2.1,1c-0.6,0.6-0.8,1.4-0.8,2.3v5.5H404.9z"/>
		<path fill="#59A1C9" d="M411.3,112.5V111h1.1v1.5H411.3z M411.3,124.1v-9.6h1.1v9.6H411.3z"/>
		<path fill="#59A1C9" d="M415.1,124.1v-9.6h0.9l0.1,1.5c0.3-0.5,0.8-0.9,1.4-1.2s1.2-0.4,1.9-0.4c1.1,0,1.9,0.3,2.4,0.9
			s0.8,1.6,0.8,2.9v6h-1.1v-6.5c0-0.9-0.2-1.5-0.5-1.8s-0.9-0.6-1.6-0.6c-0.9,0-1.6,0.2-2.1,0.7c-0.6,0.4-0.9,1-1,1.7
			c0,0.3,0,0.6,0,0.9v5.7H415.1z"/>
		<path fill="#59A1C9" d="M426.7,128.6l-0.1-1h2c0.5,0,0.8,0,1.2-0.1s0.6-0.2,0.9-0.3c0.2-0.1,0.4-0.3,0.6-0.5
			c0.2-0.2,0.3-0.4,0.4-0.7s0.2-0.5,0.2-0.9s0.1-0.7,0.1-1s0-0.7,0-1.1c0,0.1,0,0,0,0l0-0.6c-0.4,0.6-0.8,1-1.3,1.3
			s-1.1,0.5-1.8,0.5c-0.6,0-1.1-0.1-1.6-0.3s-0.9-0.5-1.2-0.8s-0.6-0.7-0.8-1.1s-0.4-0.8-0.4-1.3s-0.1-0.8-0.1-1.2
			c0-0.5,0-1,0.1-1.5c0.1-0.5,0.2-0.9,0.4-1.4s0.5-0.8,0.8-1.2s0.7-0.6,1.2-0.8s1.1-0.3,1.7-0.3c0.6,0,1.2,0.1,1.6,0.4
			s0.9,0.6,1.3,1.2l0.1-1.4h1v8.9c0,0.4,0,0.7,0,0.9c0,0.2,0,0.6-0.1,1c-0.1,0.4-0.1,0.7-0.3,1c-0.1,0.3-0.3,0.5-0.5,0.9
			s-0.5,0.6-0.8,0.7c-0.3,0.2-0.7,0.3-1.2,0.5s-1,0.2-1.7,0.2H426.7z M428.9,123.2c0.4,0,0.8-0.1,1.2-0.2s0.6-0.3,0.9-0.5
			s0.4-0.5,0.6-0.8c0.2-0.3,0.3-0.6,0.3-0.9s0.1-0.7,0.1-1v-1c0-0.5-0.1-0.9-0.2-1.3s-0.3-0.8-0.5-1.1s-0.5-0.6-1-0.8
			s-0.9-0.3-1.4-0.3c-0.4,0-0.8,0.1-1.2,0.3s-0.6,0.4-0.9,0.7s-0.4,0.6-0.6,1s-0.3,0.7-0.3,1.1c-0.1,0.4-0.1,0.8-0.1,1.2
			c0,0.4,0,0.7,0.1,1c0.1,0.3,0.2,0.7,0.3,1c0.1,0.3,0.3,0.6,0.5,0.9s0.5,0.5,0.9,0.6C428.1,123.1,428.5,123.2,428.9,123.2z"/>
		<path fill="#59A1C9" d="M442.3,124.3c-0.8,0-1.4-0.2-1.8-0.5s-0.6-1-0.6-1.8v-6.7h-1.4l0.1-0.7l1.3-0.1l0.3-2.2l0.8-0.1v2.2h2.8
			v0.8h-2.8v6.5c0,0.7,0.1,1.1,0.3,1.4s0.6,0.3,1.2,0.3c0.4,0,0.8-0.1,1.4-0.2l0,0.8C443.3,124.2,442.7,124.3,442.3,124.3z"/>
		<path fill="#59A1C9" d="M445.6,124.1v-13.4l1.1-0.1v4.6c0,0.1,0,0.2,0,0.3s0,0.1,0,0.1s0,0,0,0.1c0,0.1,0,0.1,0,0.3
			c0.8-1.1,1.9-1.6,3.4-1.6c2.1,0,3.1,1.3,3.1,3.8v6H452v-5.8c0-1.1-0.2-1.9-0.5-2.4s-0.9-0.7-1.8-0.7c-0.8,0-1.5,0.2-2.1,0.7
			s-0.9,1-1,1.7c0,0.2,0,0.6,0,1v5.5H445.6z"/>
		<path fill="#59A1C9" d="M455.8,112.5V111h1.1v1.5H455.8z M455.8,124.1v-9.6h1.1v9.6H455.8z"/>
		<path fill="#59A1C9" d="M462.4,124.3c-0.6,0-1.2-0.1-1.7-0.2s-1-0.3-1.3-0.5l0.2-0.9c1,0.5,1.9,0.8,2.8,0.8c1.6,0,2.4-0.6,2.5-1.8
			c0-0.5-0.2-0.9-0.5-1.2c-0.3-0.3-1-0.6-1.9-0.9c-0.5-0.2-0.8-0.3-0.8-0.3c-1.5-0.5-2.3-1.3-2.3-2.4c0-0.7,0.3-1.3,0.9-1.8
			s1.4-0.8,2.4-0.8s2,0.2,2.9,0.6l-0.4,0.8c-0.9-0.3-1.7-0.5-2.5-0.5c-0.7,0-1.2,0.2-1.6,0.5c-0.4,0.3-0.6,0.7-0.6,1.2
			c0,0.4,0.1,0.8,0.4,1c0.3,0.2,0.8,0.5,1.5,0.7c0.1,0,0.2,0.1,0.5,0.2c0.2,0.1,0.3,0.1,0.4,0.1c1,0.3,1.7,0.7,2.1,1.1
			c0.4,0.4,0.6,1,0.6,1.7c0,0.8-0.3,1.5-0.9,2S463.4,124.3,462.4,124.3z"/>
		<path fill="#59A1C9" d="M471.9,128.4v-13.9h1l0.1,1.4c0.5-0.5,0.9-0.9,1.4-1.2c0.5-0.3,1-0.4,1.6-0.4c1.4,0,2.4,0.5,3.1,1.4
			c0.7,0.9,1,2.2,1,3.7c0,1.4-0.4,2.6-1.1,3.5s-1.7,1.4-2.9,1.4c-0.6,0-1.2-0.1-1.8-0.4s-1-0.7-1.3-1.2c0,0.7,0,1.4,0,2.1v3.5
			L471.9,128.4z M476,123.4c0.5,0,0.9-0.1,1.3-0.4s0.7-0.6,0.9-1s0.4-0.8,0.5-1.3c0.1-0.5,0.2-1,0.2-1.5c0-0.5-0.1-1-0.2-1.5
			s-0.3-0.9-0.5-1.3c-0.2-0.4-0.5-0.7-0.9-1s-0.8-0.4-1.3-0.4c-0.5,0-1,0.1-1.4,0.3c-0.4,0.2-0.7,0.5-0.9,0.8
			c-0.2,0.4-0.4,0.8-0.5,1.2s-0.2,1-0.2,1.6c0,0.7,0,1.3,0.1,1.7s0.3,0.9,0.5,1.3s0.5,0.7,0.9,0.9S475.5,123.4,476,123.4z"/>
		<path fill="#59A1C9" d="M482.3,124.1c0-5.7,0-8.9,0-9.6h0.9l0.1,1.9c0.3-0.6,0.8-1,1.3-1.4s1.1-0.5,1.7-0.5c0.2,0,0.5,0,0.8,0.1
			l-0.1,0.9c-0.2,0-0.4-0.1-0.7-0.1c-0.8,0-1.5,0.3-2.1,1c-0.6,0.6-0.8,1.4-0.8,2.3v5.5H482.3z"/>
		<path fill="#59A1C9" d="M492.3,124.3c-0.9,0-1.6-0.2-2.3-0.7c-0.7-0.4-1.2-1-1.5-1.8s-0.5-1.6-0.5-2.6c0-0.7,0.1-1.4,0.3-2
			c0.2-0.6,0.5-1.1,0.9-1.6s0.8-0.8,1.4-1.1s1.2-0.4,1.9-0.4c0.9,0,1.7,0.2,2.3,0.7s1.2,1,1.5,1.8s0.5,1.6,0.5,2.6
			c0,1-0.2,1.8-0.5,2.6s-0.8,1.3-1.5,1.8S493.2,124.3,492.3,124.3z M492.4,123.4c0.7,0,1.3-0.2,1.8-0.6c0.5-0.4,0.8-0.9,1.1-1.5
			c0.2-0.6,0.3-1.3,0.3-2.1c0-1.2-0.3-2.2-0.8-3s-1.3-1.1-2.4-1.1c-0.7,0-1.3,0.2-1.8,0.6s-0.9,0.9-1.1,1.5s-0.3,1.3-0.3,2.1
			c0,1.2,0.3,2.2,0.8,3C490.5,123,491.3,123.4,492.4,123.4z"/>
		<path fill="#59A1C9" d="M502.9,124.3c-0.9,0-1.7-0.2-2.4-0.7s-1.2-1.1-1.5-1.8s-0.5-1.6-0.5-2.5c0-0.7,0.1-1.3,0.3-2
			s0.5-1.1,0.8-1.6c0.4-0.5,0.8-0.8,1.4-1.1s1.2-0.4,1.9-0.4c0.5,0,0.9,0.1,1.4,0.2c0.5,0.1,0.8,0.3,1,0.4l-0.3,0.8
			c-0.6-0.3-1.3-0.5-2.1-0.5c-1,0-1.8,0.4-2.4,1.1s-0.9,1.8-0.9,3c0,1.2,0.3,2.2,0.9,2.9c0.6,0.7,1.4,1.1,2.4,1.1
			c0.7,0,1.5-0.2,2.3-0.5l0.2,0.8c-0.3,0.2-0.6,0.4-1.1,0.5S503.3,124.3,502.9,124.3z"/>
		<path fill="#59A1C9" d="M511.2,124.3c-1.3,0-2.4-0.4-3.2-1.3c-0.8-0.9-1.2-2.1-1.2-3.6c0-1.5,0.4-2.7,1.1-3.6
			c0.8-0.9,1.8-1.4,3-1.5c1.1,0,2,0.4,2.7,1.2s1,1.9,1,3.3c0,0.1,0,0.2,0,0.3c0,0.2,0,0.3,0,0.3H508c0,1.2,0.3,2.2,0.9,2.9
			s1.4,1.1,2.3,1.1c0.6,0,1.2-0.1,1.6-0.2s0.9-0.4,1.5-0.6l0.2,0.8C513.5,124,512.4,124.3,511.2,124.3z M508,118.5h5.5
			c0-1.1-0.2-1.9-0.7-2.5s-1.1-0.9-1.9-0.9c-0.8,0-1.5,0.3-2,0.9S508.1,117.5,508,118.5z"/>
		<path fill="#59A1C9" d="M519.7,124.3c-0.6,0-1.2-0.1-1.7-0.2s-1-0.3-1.3-0.5l0.2-0.9c1,0.5,1.9,0.8,2.8,0.8c1.6,0,2.4-0.6,2.5-1.8
			c0-0.5-0.2-0.9-0.5-1.2c-0.3-0.3-1-0.6-1.9-0.9c-0.5-0.2-0.8-0.3-0.8-0.3c-1.5-0.5-2.3-1.3-2.3-2.4c0-0.7,0.3-1.3,0.9-1.8
			s1.4-0.8,2.4-0.8s2,0.2,2.9,0.6l-0.4,0.8c-0.9-0.3-1.7-0.5-2.5-0.5c-0.7,0-1.2,0.2-1.6,0.5c-0.4,0.3-0.6,0.7-0.6,1.2
			c0,0.4,0.1,0.8,0.4,1c0.3,0.2,0.8,0.5,1.5,0.7c0.1,0,0.2,0.1,0.5,0.2c0.2,0.1,0.3,0.1,0.4,0.1c1,0.3,1.7,0.7,2.1,1.1
			c0.4,0.4,0.6,1,0.6,1.7c0,0.8-0.3,1.5-0.9,2S520.7,124.3,519.7,124.3z"/>
		<path fill="#59A1C9" d="M528,124.3c-0.6,0-1.2-0.1-1.7-0.2s-1-0.3-1.3-0.5l0.2-0.9c1,0.5,1.9,0.8,2.8,0.8c1.6,0,2.4-0.6,2.5-1.8
			c0-0.5-0.2-0.9-0.5-1.2c-0.3-0.3-1-0.6-1.9-0.9c-0.5-0.2-0.8-0.3-0.8-0.3c-1.5-0.5-2.3-1.3-2.3-2.4c0-0.7,0.3-1.3,0.9-1.8
			s1.4-0.8,2.4-0.8s2,0.2,2.9,0.6l-0.4,0.8c-0.9-0.3-1.7-0.5-2.5-0.5c-0.7,0-1.2,0.2-1.6,0.5c-0.4,0.3-0.6,0.7-0.6,1.2
			c0,0.4,0.1,0.8,0.4,1c0.3,0.2,0.8,0.5,1.5,0.7c0.1,0,0.2,0.1,0.5,0.2c0.2,0.1,0.3,0.1,0.4,0.1c1,0.3,1.7,0.7,2.1,1.1
			c0.4,0.4,0.6,1,0.6,1.7c0,0.8-0.3,1.5-0.9,2S529,124.3,528,124.3z"/>
		<path fill="#59A1C9" d="M534.7,124.2c-0.3,0-0.5-0.1-0.7-0.3s-0.2-0.4-0.2-0.6c0-0.2,0.1-0.5,0.2-0.6s0.4-0.3,0.7-0.3
			c0.3,0,0.6,0.1,0.7,0.3s0.2,0.4,0.2,0.6c0,0.2-0.1,0.5-0.2,0.6S535.1,124.2,534.7,124.2z"/>
	</g>
</g>
<path fill="#BDBFBF" d="M128.5,113.7c-9.2-2.1-17.7-4-13.6-11.8c12.6-23.7,3.3-36.4-10-36.4c-13.6,0-22.6,13.2-10,36.4
	c4.3,7.8-4.6,9.7-13.6,11.8c-7.6,1.8-8.4,5.4-8.5,11.7c0,2.2,1.8,4,4,4h56c2.2,0,4-1.8,4-4C136.9,119.1,136.2,115.5,128.5,113.7z"/>
<path fill="#FBCB44" d="M139.6,277.5H105c11,0,20,9,20,20c0,3.6-1,7-2.7,10l0,0l-17.3,30c22.1,0,40-17.9,40-40
	C145,290.2,143,283.4,139.6,277.5z"/>
<path fill="#34B67A" d="M105,317.5c-7.4,0-13.8-4-17.3-10l0,0l-17.3-30c-3.4,5.9-5.4,12.7-5.4,20c0,22.1,17.9,40,40,40l17.3-30l0,0
	C118.8,313.5,112.4,317.5,105,317.5z"/>
<path fill="#DC4437" d="M85,297.5c0-11,9-20,20-20h34.6c-6.9-12-19.8-20-34.6-20c-14.8,0-27.7,8-34.6,20l17.3,30l0,0
	C86,304.5,85,301.1,85,297.5z"/>
<circle fill="#4385F5" cx="105" cy="297.5" r="15"/>
<g>
	<rect x="505.6" y="273" opacity="0.15" fill="#59A1C9" width="159" height="49"/>
	<path fill="#59A1C9" d="M664.1,273.5v48h-158v-48H664.1 M665.1,272.5h-160v50h160V272.5L665.1,272.5z"/>
</g>
<g>
	<path fill="#59A1C9" d="M552,303.7c-1,0-1.9-0.2-2.7-0.5s-1.4-0.8-1.9-1.4c-0.5-0.6-0.9-1.3-1.1-2.1c-0.3-0.8-0.4-1.7-0.4-2.7
		c0-1.3,0.2-2.5,0.7-3.5c0.5-1,1.2-1.8,2.1-2.4s2.1-0.9,3.4-0.9c1.4,0,2.6,0.3,3.6,0.9l-0.5,0.9c-0.9-0.6-1.9-0.8-3.1-0.8
		c-0.8,0-1.5,0.2-2.2,0.5s-1.2,0.7-1.6,1.3c-0.4,0.5-0.7,1.2-0.9,1.9c-0.2,0.7-0.3,1.5-0.3,2.3c0,0.8,0.1,1.5,0.3,2.2
		c0.2,0.7,0.5,1.3,0.9,1.8c0.4,0.5,0.9,1,1.6,1.3s1.4,0.5,2.3,0.5c0.9,0,1.9-0.3,3.1-0.8l0.2,0.9C554.6,303.4,553.4,303.7,552,303.7
		z"/>
	<path fill="#59A1C9" d="M561.3,303.7c-0.9,0-1.6-0.2-2.3-0.7c-0.7-0.4-1.2-1-1.5-1.8c-0.3-0.8-0.5-1.6-0.5-2.6c0-0.7,0.1-1.4,0.3-2
		c0.2-0.6,0.5-1.1,0.9-1.6s0.8-0.8,1.4-1.1s1.2-0.4,1.9-0.4c0.9,0,1.7,0.2,2.3,0.7s1.2,1,1.5,1.8c0.3,0.7,0.5,1.6,0.5,2.6
		c0,1-0.2,1.8-0.5,2.6s-0.8,1.3-1.5,1.8S562.3,303.7,561.3,303.7z M561.4,302.8c0.7,0,1.3-0.2,1.8-0.6c0.5-0.4,0.8-0.9,1.1-1.5
		c0.2-0.6,0.3-1.3,0.3-2.1c0-1.2-0.3-2.2-0.8-3s-1.3-1.1-2.4-1.1c-0.7,0-1.3,0.2-1.8,0.6c-0.5,0.4-0.9,0.9-1.1,1.5s-0.3,1.3-0.3,2.1
		c0,1.2,0.3,2.2,0.8,3C559.6,302.4,560.4,302.8,561.4,302.8z"/>
	<path fill="#59A1C9" d="M567.9,303.5v-9.6h0.9l0.1,1.5c0.3-0.5,0.8-0.9,1.4-1.2c0.6-0.3,1.2-0.4,1.9-0.4c1.1,0,1.9,0.3,2.4,0.9
		s0.8,1.6,0.8,2.9v6h-1.1V297c0-0.9-0.2-1.5-0.5-1.8s-0.9-0.6-1.6-0.6c-0.9,0-1.6,0.2-2.1,0.7c-0.6,0.4-0.9,1-1,1.7
		c0,0.3,0,0.6,0,0.9v5.7H567.9z"/>
	<path fill="#59A1C9" d="M580.7,303.7c-0.8,0-1.4-0.2-1.8-0.5s-0.6-1-0.6-1.8v-6.7H577l0.1-0.7l1.3-0.1l0.3-2.2l0.8-0.1v2.2h2.8v0.8
		h-2.8v6.5c0,0.7,0.1,1.1,0.3,1.4s0.6,0.3,1.2,0.3c0.4,0,0.8-0.1,1.4-0.2l0,0.8C581.7,303.6,581.1,303.7,580.7,303.7z"/>
	<path fill="#59A1C9" d="M584,303.5c0-5.7,0-8.9,0-9.6h0.9l0.1,1.9c0.3-0.6,0.8-1,1.3-1.4s1.1-0.5,1.7-0.5c0.2,0,0.5,0,0.8,0.1
		l-0.1,0.9c-0.2,0-0.4-0.1-0.7-0.1c-0.8,0-1.5,0.3-2.1,1c-0.6,0.6-0.8,1.4-0.8,2.3v5.5H584z"/>
	<path fill="#59A1C9" d="M594,303.7c-0.9,0-1.6-0.2-2.3-0.7c-0.7-0.4-1.2-1-1.5-1.8c-0.3-0.8-0.5-1.6-0.5-2.6c0-0.7,0.1-1.4,0.3-2
		c0.2-0.6,0.5-1.1,0.9-1.6s0.8-0.8,1.4-1.1s1.2-0.4,1.9-0.4c0.9,0,1.7,0.2,2.3,0.7s1.2,1,1.5,1.8c0.3,0.7,0.5,1.6,0.5,2.6
		c0,1-0.2,1.8-0.5,2.6s-0.8,1.3-1.5,1.8S594.9,303.7,594,303.7z M594.1,302.8c0.7,0,1.3-0.2,1.8-0.6c0.5-0.4,0.8-0.9,1.1-1.5
		c0.2-0.6,0.3-1.3,0.3-2.1c0-1.2-0.3-2.2-0.8-3s-1.3-1.1-2.4-1.1c-0.7,0-1.3,0.2-1.8,0.6c-0.5,0.4-0.9,0.9-1.1,1.5s-0.3,1.3-0.3,2.1
		c0,1.2,0.3,2.2,0.8,3C592.2,302.4,593,302.8,594.1,302.8z"/>
	<path fill="#59A1C9" d="M603,303.7c-0.8,0-1.4-0.2-1.8-0.5s-0.6-1-0.6-1.8v-11.2l1.1-0.1v11.3c0,0.6,0.1,1,0.3,1.2
		c0.2,0.2,0.5,0.3,1,0.3c0.4,0,0.8-0.1,1.3-0.2l0,0.8C603.8,303.6,603.3,303.7,603,303.7z"/>
	<path fill="#59A1C9" d="M608.1,303.7c-0.8,0-1.4-0.2-1.8-0.5s-0.6-1-0.6-1.8v-11.2l1.1-0.1v11.3c0,0.6,0.1,1,0.3,1.2
		c0.2,0.2,0.5,0.3,1,0.3c0.4,0,0.8-0.1,1.3-0.2l0,0.8C608.9,303.6,608.4,303.7,608.1,303.7z"/>
	<path fill="#59A1C9" d="M614.7,303.7c-1.3,0-2.4-0.4-3.2-1.3c-0.8-0.9-1.2-2.1-1.2-3.6c0-1.5,0.4-2.7,1.1-3.6
		c0.8-0.9,1.8-1.4,3-1.5c1.1,0,2,0.4,2.7,1.2s1,1.9,1,3.3c0,0.1,0,0.2,0,0.3c0,0.2,0,0.3,0,0.3h-6.7c0,1.2,0.3,2.2,0.9,2.9
		s1.4,1.1,2.3,1.1c0.6,0,1.2-0.1,1.6-0.2s0.9-0.4,1.5-0.6l0.2,0.8C617,303.4,615.9,303.7,614.7,303.7z M611.5,297.9h5.5
		c0-1.1-0.2-1.9-0.7-2.5s-1.1-0.9-1.9-0.9c-0.8,0-1.5,0.3-2,0.9S611.6,296.9,611.5,297.9z"/>
	<path fill="#59A1C9" d="M620.4,303.5c0-5.7,0-8.9,0-9.6h0.9l0.1,1.9c0.3-0.6,0.8-1,1.3-1.4s1.1-0.5,1.7-0.5c0.2,0,0.5,0,0.8,0.1
		l-0.1,0.9c-0.2,0-0.4-0.1-0.7-0.1c-0.8,0-1.5,0.3-2.1,1c-0.6,0.6-0.8,1.4-0.8,2.3v5.5H620.4z"/>
</g>
<g>
	<path fill="#F65A5B" d="M64.6,193.6v-10.7c-0.1,0.1-0.5,0.2-1.1,0.5c-0.7,0.3-1.1,0.4-1.1,0.5v-1.8c0.1-0.1,0.6-0.3,1.3-0.7
		s1.2-0.6,1.2-0.6h1.9v12.8H64.6z"/>
</g>
<g>
	<path fill="#F65A5B" d="M459.9,458.8c-0.6,0-1.2-0.1-1.8-0.3s-1.1-0.4-1.4-0.5s-0.5-0.3-0.6-0.4l0.7-1.7c0.1,0.1,0.3,0.2,0.5,0.3
		s0.6,0.3,1,0.5s0.9,0.3,1.4,0.3c0.8,0,1.4-0.2,1.9-0.7s0.6-1.1,0.6-1.8c0-0.7-0.2-1.3-0.6-1.7c-0.4-0.4-0.9-0.6-1.5-0.6
		c-0.7,0-1.4,0.3-2,0.9l-1.5-0.3l0.3-7h7l-0.1,1.8h-4.8c0,0.1,0,0.6-0.1,1.6s-0.1,1.5-0.1,1.6c0.5-0.3,1.1-0.4,1.6-0.4
		c1.2,0,2.1,0.4,2.9,1.1c0.7,0.8,1.1,1.8,1.1,3c0,1.3-0.4,2.3-1.2,3.1C462.4,458.4,461.3,458.8,459.9,458.8z"/>
</g>
<g>
	<path fill="#F65A5B" d="M461.2,213.6v-2.9h-5.8v-1.6l5.2-8.4h2.9v8.2h1.6l-0.1,1.7h-1.5v2.9H461.2z M457.7,209h3.5v-6L457.7,209z"
		/>
</g>
<g>
	<path fill="#F65A5B" d="M304.6,262.7c-0.8,0-1.5-0.1-2.1-0.3s-1.2-0.5-1.6-0.8l0.6-1.7c0.3,0.3,0.8,0.5,1.3,0.7s1.2,0.3,1.7,0.3
		c0.7,0,1.2-0.2,1.6-0.5c0.4-0.4,0.6-0.8,0.6-1.4c0-0.4-0.1-0.7-0.2-0.9c-0.1-0.3-0.3-0.5-0.5-0.6s-0.4-0.3-0.8-0.4
		c-0.3-0.1-0.6-0.2-1-0.2s-0.7-0.1-1.2-0.1c0,0-0.1,0-0.3,0s-0.2,0-0.3,0v-1.8h0.5c0.5,0,0.9,0,1.3-0.1s0.7-0.1,1-0.3
		s0.6-0.3,0.7-0.6c0.2-0.3,0.2-0.6,0.2-0.9c0-0.5-0.2-0.9-0.6-1.3s-0.9-0.5-1.6-0.5c-1.1,0-2.1,0.3-2.9,0.8l-0.6-1.7
		c1.1-0.7,2.3-1,3.8-1c1.2,0,2.2,0.3,3,1c0.8,0.6,1.2,1.5,1.2,2.5c0,0.7-0.2,1.3-0.5,1.8c-0.4,0.5-0.9,0.9-1.6,1.1
		c0.8,0.2,1.4,0.5,1.8,1.1c0.4,0.6,0.6,1.3,0.6,2.1c0,0.8-0.2,1.5-0.6,2s-1,1-1.7,1.3S305.5,262.7,304.6,262.7z"/>
</g>
<g>
	<path fill="#F65A5B" d="M211.2,332.5l-0.1-1.9l4.1-4.6c0.5-0.5,0.9-1,1.1-1.5c0.2-0.5,0.3-0.9,0.3-1.4c0-0.6-0.2-1-0.5-1.3
		s-0.8-0.5-1.4-0.5c-0.5,0-1.1,0.1-1.6,0.3s-1,0.5-1.3,0.8l-0.7-1.7c0.9-0.8,2.1-1.2,3.7-1.2c1.3,0,2.3,0.3,3.1,1s1.2,1.5,1.2,2.7
		c0,0.8-0.2,1.6-0.7,2.3c-0.4,0.7-1,1.5-1.8,2.3l-2.9,3.1h5.2l-0.2,1.7H211.2z"/>
</g>
<g>
	<path fill="#4385F5" d="M73.9,357.5v-13.1h3.6c1.6,0,2.8,0.3,3.6,0.8c0.7,0.5,1.1,1.4,1.1,2.5c0,0.1,0,0.2,0,0.3c0,0.1,0,0.2,0,0.4
		s-0.1,0.4-0.1,0.5s-0.1,0.3-0.2,0.5s-0.2,0.4-0.4,0.5c-0.1,0.1-0.3,0.3-0.6,0.4s-0.5,0.3-0.8,0.4c0.9,0.1,1.6,0.5,2.1,1.1
		s0.7,1.3,0.7,2.1c0,1.2-0.4,2.1-1.1,2.7s-1.9,1-3.4,1H73.9z M75,350.2h3c0.5,0,0.9,0,1.2-0.1s0.6-0.2,0.9-0.4
		c0.3-0.2,0.5-0.4,0.6-0.8s0.2-0.7,0.2-1.2c0-0.9-0.3-1.5-0.8-1.9c-0.6-0.4-1.5-0.5-2.7-0.5H75V350.2z M75,356.6h3
		c2.4,0,3.6-0.9,3.6-2.8c0-1-0.3-1.7-1-2.1s-1.7-0.6-3.1-0.6H75V356.6z"/>
	<path fill="#4385F5" d="M84.7,357.5c0-5.7,0-8.9,0-9.6h0.9l0.1,1.9c0.3-0.6,0.8-1,1.3-1.4s1.1-0.5,1.7-0.5c0.2,0,0.5,0,0.8,0.1
		l-0.1,0.9c-0.2,0-0.4-0.1-0.7-0.1c-0.8,0-1.5,0.3-2.1,1c-0.6,0.6-0.8,1.4-0.8,2.3v5.5H84.7z"/>
	<path fill="#4385F5" d="M94.7,357.7c-0.9,0-1.6-0.2-2.3-0.7c-0.7-0.4-1.2-1-1.5-1.8s-0.5-1.6-0.5-2.6c0-0.7,0.1-1.4,0.3-2
		c0.2-0.6,0.5-1.1,0.9-1.6s0.8-0.8,1.4-1.1s1.2-0.4,1.9-0.4c0.9,0,1.7,0.2,2.3,0.7s1.2,1,1.5,1.8s0.5,1.6,0.5,2.6
		c0,1-0.2,1.8-0.5,2.6s-0.8,1.3-1.5,1.8S95.6,357.7,94.7,357.7z M94.8,356.8c0.7,0,1.3-0.2,1.8-0.6c0.5-0.4,0.8-0.9,1.1-1.5
		c0.2-0.6,0.3-1.3,0.3-2.1c0-1.2-0.3-2.2-0.8-3s-1.3-1.1-2.4-1.1c-0.7,0-1.3,0.2-1.8,0.6s-0.9,0.9-1.1,1.5s-0.3,1.3-0.3,2.1
		c0,1.2,0.3,2.2,0.8,3C92.9,356.4,93.7,356.8,94.8,356.8z"/>
	<path fill="#4385F5" d="M102.7,357.5l-2.7-9.6h1.1l2.2,8.6c1.6-5.1,2.5-8,2.7-8.6h1.3c1.8,5.7,2.6,8.6,2.7,8.6l2.1-8.6h1.1
		l-2.6,9.6h-1.3c0,0-0.4-1.3-1.2-4.1s-1.3-4.3-1.4-4.8c-0.1,0.3-0.3,1.2-0.8,2.7s-0.9,2.9-1.3,4.2s-0.6,2-0.7,2H102.7z"/>
	<path fill="#4385F5" d="M117.6,357.7c-0.6,0-1.2-0.1-1.7-0.2s-1-0.3-1.3-0.5l0.2-0.9c1,0.5,1.9,0.8,2.8,0.8c1.6,0,2.4-0.6,2.5-1.8
		c0-0.5-0.2-0.9-0.5-1.2c-0.3-0.3-1-0.6-1.9-0.9c-0.5-0.2-0.8-0.3-0.8-0.3c-1.5-0.5-2.3-1.3-2.3-2.4c0-0.7,0.3-1.3,0.9-1.8
		s1.4-0.8,2.4-0.8s2,0.2,2.9,0.6l-0.4,0.8c-0.9-0.3-1.7-0.5-2.5-0.5c-0.7,0-1.2,0.2-1.6,0.5c-0.4,0.3-0.6,0.7-0.6,1.2
		c0,0.4,0.1,0.8,0.4,1c0.3,0.2,0.8,0.5,1.5,0.7c0.1,0,0.2,0.1,0.5,0.2c0.2,0.1,0.3,0.1,0.4,0.1c1,0.3,1.7,0.7,2.1,1.1
		c0.4,0.4,0.6,1,0.6,1.7c0,0.8-0.3,1.5-0.9,2S118.6,357.7,117.6,357.7z"/>
	<path fill="#4385F5" d="M127,357.7c-1.3,0-2.4-0.4-3.2-1.3c-0.8-0.9-1.2-2.1-1.2-3.6c0-1.5,0.4-2.7,1.1-3.6c0.8-0.9,1.8-1.4,3-1.5
		c1.1,0,2,0.4,2.7,1.2s1,1.9,1,3.3c0,0.1,0,0.2,0,0.3c0,0.2,0,0.3,0,0.3h-6.7c0,1.2,0.3,2.2,0.9,2.9s1.4,1.1,2.3,1.1
		c0.6,0,1.2-0.1,1.6-0.2s0.9-0.4,1.5-0.6l0.2,0.8C129.3,357.4,128.2,357.7,127,357.7z M123.9,351.9h5.5c0-1.1-0.2-1.9-0.7-2.5
		s-1.1-0.9-1.9-0.9c-0.8,0-1.5,0.3-2,0.9S124,350.9,123.9,351.9z"/>
	<path fill="#4385F5" d="M132.7,357.5c0-5.7,0-8.9,0-9.6h0.9l0.1,1.9c0.3-0.6,0.8-1,1.3-1.4s1.1-0.5,1.7-0.5c0.2,0,0.5,0,0.8,0.1
		l-0.1,0.9c-0.2,0-0.4-0.1-0.7-0.1c-0.8,0-1.5,0.3-2.1,1c-0.6,0.6-0.8,1.4-0.8,2.3v5.5H132.7z"/>
</g>
<g>
	<g>
		<path fill="none" stroke="#4385F5" stroke-miterlimit="10" d="M578.5,337.6c-16.7,49.4-63.4,84.9-118.4,84.9
			c-55.1,0-101.9-35.7-118.5-85.2"/>
		<g>
			<polygon fill="#4385F5" points="346.5,339.1 346.1,340 341.7,337.7 339.7,342.2 338.8,341.8 341.2,336.3 			"/>
		</g>
	</g>
</g>
<g>
	<g>
		<path fill="none" stroke="#4385F5" stroke-miterlimit="10" d="M341.9,256.8c16.9-49.1,63.4-84.3,118.2-84.3
			c54.5,0,100.8,34.8,117.9,83.4"/>
		<g>
			<polygon fill="#4385F5" points="573,254.3 573.4,253.4 577.8,255.6 579.7,251 580.6,251.4 578.4,256.9 			"/>
		</g>
	</g>
</g>
<g>
	<g>
		<line fill="none" stroke="#4385F5" stroke-miterlimit="10" x1="171.1" y1="297.5" x2="229" y2="297.5"/>
		<g>
			<polygon fill="#4385F5" points="174.4,301.6 175.1,300.8 171.5,297.5 175.1,294.1 174.4,293.4 170,297.5 			"/>
		</g>
		<g>
			<polygon fill="#4385F5" points="225.6,301.6 225,300.8 228.6,297.5 225,294.1 225.6,293.4 230,297.5 			"/>
		</g>
	</g>
</g>
<g>
	<g>
		<g>
			<polygon points="291,285 291,284 290,284 289,284 289,285 290,285 			"/>
			<polygon points="291,287 291,288 291,289 291,290 291,291 291,292 291,293 291,294 292,294 292,293 292,292 292,291 292,290 
				293,290 294,290 294,289 293,289 292,289 292,288 292,287 292,286 292,285 291,285 291,286 			"/>
			<polygon points="294,292 294,293 294,294 295,294 295,293 295,292 295,291 296,291 297,291 297,290 296,290 295,290 294,290 
				294,291 			"/>
			<polygon points="297,293 297,294 297,295 298,295 298,294 298,293 298,292 299,292 299,291 298,291 297,291 297,292 			"/>
			<rect x="299" y="292" width="1" height="1"/>
			<polygon points="300,293 300,294 300,295 300,296 300,297 300,298 300,299 300,300 301,300 301,299 301,298 301,297 301,296 
				301,295 301,294 301,293 			"/>
			<polygon points="299,301 299,302 299,303 300,303 300,302 300,301 300,300 299,300 			"/>
			<polygon points="298,304 298,305 297,305 296,305 295,305 294,305 293,305 292,305 291,305 290,305 290,304 290,303 289,303 
				289,304 289,305 289,306 290,306 291,306 292,306 293,306 294,306 295,306 296,306 297,306 298,306 299,306 299,305 299,304 
				299,303 298,303 			"/>
			<polygon points="289,301 288,301 288,302 288,303 289,303 289,302 			"/>
			<polygon points="288,299 287,299 287,300 287,301 288,301 288,300 			"/>
			<polygon points="287,297 286,297 286,298 286,299 287,299 287,298 			"/>
			<rect x="285" y="296" width="1" height="1"/>
			<polygon points="285,294 286,294 287,294 287,293 286,293 285,293 284,293 284,294 284,295 284,296 285,296 285,295 			"/>
			<polygon points="288,295 288,296 289,296 289,295 289,294 289,293 289,292 289,291 289,290 289,289 289,288 289,287 289,286 
				289,285 288,285 288,286 288,287 288,288 288,289 288,290 288,291 288,292 288,293 288,294 287,294 287,295 			"/>
		</g>
		<polygon fill="#FFFFFF" points="299,293 299,292 298,292 298,295 297,295 297,294 297,291 295,291 295,294 294,294 294,290 
			292,290 292,294 291,294 291,285 289,285 289,296 288,296 288,295 287,295 287,294 285,294 285,296 286,296 286,297 287,297 
			287,299 288,299 288,301 289,301 289,303 290,303 290,305 292,305 298,305 298,303 299,303 299,300 300,300 300,293 		"/>
	</g>
</g>
<g>
	<g>
		<line fill="none" stroke="#4385F5" stroke-miterlimit="10" x1="125" y1="237.5" x2="125" y2="150.5"/>
		<g>
			<polygon fill="#4385F5" points="129.1,153.9 128.4,154.5 125,150.9 121.6,154.5 120.9,153.9 125,149.5 			"/>
		</g>
	</g>
</g>
<g>
	<g>
		<line fill="none" stroke="#4385F5" stroke-miterlimit="10" x1="85" y1="236.4" x2="85" y2="149.5"/>
		<g>
			<polygon fill="#4385F5" points="89.1,233.1 88.4,232.4 85,236 81.6,232.4 80.9,233.1 85,237.5 			"/>
		</g>
	</g>
</g>
</svg>
